# xmcd CD database file
#
# Track frame offsets:
#	150
#	10125
#	19840
#	27260
#	37810
#	48825
#	55290
#	64725
#	77645
#	87885
#	99990
#	112965
#	125785
#	139255
#	147265
#	157610
#	171250
#	183755
#	194795
#	207900
#
# Disc length: 2936 seconds
#
# Revision: 1
# Processed by: cddbd v1.5.2PL0 Copyright (c) Steve Scherf et al.
# Submitted via: CDex 1.70beta2
#
DISCID=070b7614
DTITLE=Peggy Lee - Peggy Lee 20 Golden Hits
DYEAR=1994
DGENRE=
TTITLE0=The Lady is a Tramp
TTITLE1=Too Young
TTITLE2=If I Could Be With You
TTITLE3=These Foolish Things
TTITLE4=Just One More Chance
TTITLE5=A Guy is a Guy
TTITLE6=Shanghai
TTITLE7=It Never Happened to Me
TTITLE8=Make the Man Love Me
TTITLE9=It's All Over Now
TTITLE10=It Takes a Long Long Train
TTITLE11=Golden Earrings
TTITLE12=Love, Your Magic Spell is Everywhere
TTITLE13=What is this Thing Called Love
TTITLE14=I Got Lucky in the Rain
TTITLE15=He's Just My Kind
TTITLE16=Linger in My Arms A Little Longer
TTITLE17=For Sentimental Reasons
TTITLE18=My Last Affair
TTITLE19=I'm Confessin'
EXTD=YEAR: 1994
EXTT0=
EXTT1=
EXTT2=
EXTT3=
EXTT4=
EXTT5=
EXTT6=
EXTT7=
EXTT8=
EXTT9=
EXTT10=
EXTT11=
EXTT12=
EXTT13=
EXTT14=
EXTT15=
EXTT16=
EXTT17=
EXTT18=
EXTT19=
PLAYORDER=
